<svg width="1024" height="1024" viewBox="0 0 1024 1024" xmlns="http://www.w3.org/2000/svg" role="img" aria-label="HAYVN app icon">
<title>HAYVN</title>
<desc>HAYVN app icon: solid hunter green square with a cream house icon and the HAYVN wordmark</desc>
<rect x="0" y="0" width="1024" height="1024" fill="#16402F"/>
<g>
<path d="M372 392 L512 268 L652 392" fill="none" stroke="#FBF7EC" stroke-width="34" stroke-linecap="round" stroke-linejoin="round"/>
<path d="M404 360 V520 H620 V360" fill="none" stroke="#FBF7EC" stroke-width="34" stroke-linecap="round" stroke-linejoin="round"/>
<path d="M470 520 V440 H554 V520" fill="none" stroke="#FBF7EC" stroke-width="34" stroke-linecap="round" stroke-linejoin="round"/>
</g>
<g transform="translate(78.50,770.00) scale(0.20000,-0.20000)"><path d="M456.800048828125 0V20Q488.40008544921875 22 503.8150108824385 28.0Q519.2299363156583 34 524.5150536070479 52.0Q529.8001708984375 70 529.8001708984375 106V602Q529.8001708984375 639 524.4129275058178 656.5Q519.0256841131982 674 503.3128908847241 680.5Q487.60009765625 687 456.800048828125 688V708Q486.199951171875 707 531.9997863769531 706.0Q577.7996215820312 705 623.7994384765625 705Q672.7133058922313 705 715.3561646648657 706.0Q757.9990234375 707 783.7989501953125 708V688Q752.9525252632473 687 737.0756889011549 680.5Q721.1988525390625 674 715.9988403320312 656.5Q710.798828125 639 710.798828125 602V106Q710.798828125 70 716.2062445746528 52.0Q721.6136610243055 34 737.3852923357929 28.0Q753.1569236472801 22 783.7989501953125 20V0Q757.9990234375 2 715.3561646648657 2.5Q672.7133058922313 3 623.7994384765625 3Q577.7996215820312 3 531.9997863769531 2.5Q486.199951171875 2 456.800048828125 0ZM30.8001708984375 0V20Q62.40020751953125 22 77.815132952751 28.0Q93.23005838597075 34 98.51517567736038 52.0Q103.80029296875 70 103.80029296875 106V602Q103.80029296875 639 98.41304957613032 656.5Q93.02580618351064 674 77.31301295503657 680.5Q61.6002197265625 687 30.8001708984375 688V708Q58.36257076263428 707 102.98740863800049 706.0Q147.6122465133667 705 198.799560546875 705Q243.3994140625 705 286.69927978515625 706.0Q329.9991455078125 707 357.799072265625 708V688Q326.95264733355975 687 311.0758109714674 680.5Q295.198974609375 674 289.99896240234375 656.5Q284.7989501953125 639 284.7989501953125 602V106Q284.7989501953125 70 290.20636664496527 52.0Q295.61378309461804 34 311.3854144061053 28.0Q327.1570457175926 22 357.799072265625 20V0Q329.9991455078125 2 286.69927978515625 2.5Q243.3994140625 3 198.799560546875 3Q147.6122465133667 3 102.98740863800049 2.5Q58.36257076263428 2 30.8001708984375 0ZM209.799560546875 346V366H604.799560546875V346Z" fill="#FBF7EC"/></g>
<g transform="translate(281.50,770.00) scale(0.20000,-0.20000)"><path d="M382.99908447265625 709.0000610351562 625.3991088867188 84Q639.59912109375 49.199951171875 656.1991577148438 35.0999755859375Q672.7991943359375 21 686.3992309570312 20V0Q653.5994262695312 2 609.399658203125 2.5Q565.1998901367188 3 519.400146484375 3Q470.80029296875 3 428.00042724609375 2.5Q385.2005615234375 2 359.400634765625 0V20Q410.400634765625 22 424.0006408691406 37.5Q437.60064697265625 53 417.60064697265625 104L252.40032958984375 557.8006591796875L271.60028076171875 588.400390625L126.39984130859375 210.79925537109375Q103.199951171875 150.799560546875 98.19998168945312 113.69970703125Q93.20001220703125 76.599853515625 102.89999389648438 56.59991455078125Q112.5999755859375 36.5999755859375 134.29995727539062 28.79998779296875Q155.99993896484375 21 186.199951171875 20V0Q151.00006103515625 2 121.300048828125 2.5Q91.60003662109375 3 58.400146484375 3Q38.2000732421875 3 17.5001220703125 2.5Q-3.1998291015625 2 -18.1998291015625 0V20Q4.20013427734375 24.20001220703125 26.400115966796875 48.2999267578125Q48.60009765625 72.39984130859375 71.20001220703125 130.9996337890625L295.8001708984375 709.0000610351562Q315.7999267578125 707.4000854492188 339.3996276855469 707.4000854492188Q362.99932861328125 707.4000854492188 382.99908447265625 709.0000610351562ZM435.400146484375 288V268H137.400146484375L147.400146484375 288Z" fill="#FBF7EC"/></g>
<g transform="translate(457.50,770.00) scale(0.20000,-0.20000)"><path d="M626.3994140625 708.7999877929688V688.7999877929688Q604.199462890625 679.2000732421875 579.5995483398438 650.7001953125Q554.9996337890625 622.2003173828125 525.5997314453125 564.6005249023438L341.199462890625 199H284.2000732421875L50.2000732421875 631.7999877929688Q32.60003662109375 664.800048828125 17.900054931640625 676.3000183105469Q3.2000732421875 687.7999877929688 -7.7999267578125 687.7999877929688V708.7999877929688Q20.99993896484375 706.2000122070312 52.09979248046875 704.8000183105469Q83.19964599609375 703.4000244140625 120.199462890625 703.4000244140625Q167.5992431640625 703.4000244140625 222.698974609375 705.1000061035156Q277.7987060546875 706.7999877929688 324.198486328125 708.7999877929688V687.7999877929688Q299.198486328125 687.7999877929688 278.5985107421875 684.9999389648438Q257.99853515625 682.1998901367188 249.59857177734375 672.9997863769531Q241.1986083984375 663.7996826171875 251.398681640625 642.799560546875L405.9989013671875 345.9991455078125L366.79937744140625 295.1998291015625L460.5999755859375 482.60101318359375Q499.7998046875 560.0006713867188 503.29974365234375 604.4004516601562Q506.7996826171875 648.8002319335938 484.59967041015625 668.3001098632812Q462.399658203125 687.7999877929688 421.9996337890625 688.7999877929688V708.7999877929688Q458.19952392578125 707.7999877929688 487.7995300292969 706.7999877929688Q517.3995361328125 705.7999877929688 549.7994384765625 705.7999877929688Q570.99951171875 705.7999877929688 591.199462890625 706.7999877929688Q611.3994140625 707.7999877929688 626.3994140625 708.7999877929688ZM419.7989501953125 375.19891357421875V106Q419.7989501953125 70 425.3989562988281 52.0Q430.99896240234375 34 446.4989929199219 28.0Q461.9990234375 22 492.799072265625 20V0Q464.9991455078125 2 419.6993103027344 2.5Q374.39947509765625 3 329.79962158203125 3Q281.19976806640625 3 236.39993286132812 2.5Q191.60009765625 2 165.8001708984375 0V20Q197.40020751953125 22 212.90023803710938 28.0Q228.4002685546875 34 233.60028076171875 52.0Q238.80029296875 70 238.80029296875 106V311L336.79962158203125 249Z" fill="#FBF7EC"/></g>
<g transform="translate(624.10,770.00) scale(0.20000,-0.20000)"><path d="M691.399169921875 708V688Q669.19921875 678.4000854492188 643.2992858886719 648.6002502441406Q617.3993530273438 618.8004150390625 595.5994262695312 558.6006469726562L392.59893798828125 -1.00006103515625Q382.59906005859375 -0.2000732421875 371.3992004394531 0.199920654296875Q360.1993408203125 0.59991455078125 348.5994873046875 0.59991455078125Q337.79962158203125 0.59991455078125 326.5997619628906 0.199920654296875Q315.39990234375 -0.2000732421875 305.4000244140625 -1.00006103515625L47.000244140625 624Q32.80023193359375 659.6000366210938 16.600189208984375 673.3000183105469Q0.400146484375 687 -13.9998779296875 688V708Q18.7999267578125 707 63.49969482421875 706.0Q108.199462890625 705 152.99920654296875 705Q201.59906005859375 705 244.39892578125 706.0Q287.19879150390625 707 312.99871826171875 708V688Q281.398681640625 687 263.4986877441406 680.7999877929688Q245.59869384765625 674.5999755859375 243.2987060546875 657.0999755859375Q240.99871826171875 639.5999755859375 254.7987060546875 604L435.998779296875 150.9993896484375L413.598876953125 122.799560546875L539.599609375 469.201171875Q568.5994873046875 550.4007568359375 569.9994506835938 597.7005004882812Q571.3994140625 645.000244140625 549.3994140625 666.0001220703125Q527.3994140625 687 486.9993896484375 688V708Q523.1992797851562 707 552.7992858886719 706.0Q582.3992919921875 705 614.7991943359375 705Q635.999267578125 705 656.19921875 706.0Q676.399169921875 707 691.399169921875 708Z" fill="#FBF7EC"/></g>
<g transform="translate(800.10,770.00) scale(0.20000,-0.20000)"><path d="M700.3995361328125 708V688Q669.5994873046875 683.0000610351562 653.699462890625 669.2001342773438Q637.7994384765625 655.4002075195312 632.5994262695312 626.2003479003906Q627.3994140625 597.00048828125 627.3994140625 544.000732421875V-1.00006103515625Q614.1995239257812 0.59991455078125 599.0996704101562 0.59991455078125Q583.9998168945312 0.59991455078125 566.7999877929688 -1.00006103515625L128.4002685546875 516.001953125V179.9990234375Q128.4002685546875 119.19940185546875 134.10028076171875 86.6995849609375Q139.80029296875 54.19976806640625 160.9002685546875 40.099853515625Q182.000244140625 25.99993896484375 227.400146484375 20V0Q207.8001708984375 2 176.40020751953125 2.5Q145.000244140625 3 117.4002685546875 3Q94.80023193359375 3 71.30020141601562 2.5Q47.8001708984375 2 32.400146484375 0V20Q64.00018310546875 25.99993896484375 79.50021362304688 39.29986572265625Q95.000244140625 52.59979248046875 100.20025634765625 82.29965209960938Q105.4002685546875 111.99951171875 105.4002685546875 163.999267578125V602Q105.4002685546875 639 100.20025634765625 656.5Q95.000244140625 674 79.1002197265625 680.5Q63.2001953125 687 32.400146484375 688V708Q47.8001708984375 707 71.30020141601562 706.0Q94.80023193359375 705 117.4002685546875 705Q141.80023193359375 705 165.00018310546875 706.0Q188.20013427734375 707 206.60009765625 708L604.3994140625 253.5986328125V528.0009765625Q604.3994140625 589.0006103515625 598.6994018554688 621.4004211425781Q592.9993896484375 653.8002319335938 572.2994079589844 668.400146484375Q551.5994262695312 683.0000610351562 505.3995361328125 688V708Q524.99951171875 707 556.4994812011719 706.0Q587.9994506835938 705 615.3994140625 705Q638.9994506835938 705 662.0994873046875 706.0Q685.1995239257812 707 700.3995361328125 708Z" fill="#FBF7EC"/></g>
</svg>